<?xml version="1.0" encoding="utf-8"?>
<!-- Generator: Adobe Illustrator 22.1.0, SVG Export Plug-In . SVG Version: 6.00 Build 0)  -->
<svg version="1.1" xmlns="http://www.w3.org/2000/svg" xmlns:xlink="http://www.w3.org/1999/xlink" x="0px" y="0px"
	 viewBox="0 0 1920 1080" style="enable-background:new 0 0 1920 1080;" xml:space="preserve">
<style type="text/css">
	.st0{fill:#EEAF03;}
	.st1{display:none;opacity:0.23;}
	.st2{display:inline;fill:#ED0606;}
	.st3{display:none;opacity:7.000000e-02;}
	.st4{display:inline;}
	.st5{fill:#ED0606;}
	.st6{opacity:0.17;}
	.st7{fill:none;}
	.st8{fill:#FCFCFC;}
	.st9{fill:#D39909;}
	.st10{fill:#FCDB8B;}
</style>
<g id="Layer_1">
	<rect class="st0" width="1920" height="1080"/>
</g>
<g id="Layer_2" class="st1">
	<rect y="0" class="st2" width="192" height="196"/>
	<rect x="216" y="0" class="st2" width="192" height="196"/>
	<rect x="432" y="0" class="st2" width="192" height="196"/>
	<rect x="648" y="0" class="st2" width="192" height="196"/>
	<rect x="864" y="0" class="st2" width="192" height="196"/>
	<rect x="1080" y="0" class="st2" width="192" height="196"/>
	<rect x="1296" y="0" class="st2" width="192" height="196"/>
	<rect x="1512" y="0" class="st2" width="192" height="196"/>
	<rect x="1728" y="0" class="st2" width="192" height="196"/>
	<rect y="221" class="st2" width="192" height="196"/>
	<rect x="216" y="221" class="st2" width="192" height="196"/>
	<rect x="432" y="221" class="st2" width="192" height="196"/>
	<rect x="648" y="221" class="st2" width="192" height="196"/>
	<rect x="864" y="221" class="st2" width="192" height="196"/>
	<rect x="1080" y="221" class="st2" width="192" height="196"/>
	<rect x="1296" y="221" class="st2" width="192" height="196"/>
	<rect x="1512" y="221" class="st2" width="192" height="196"/>
	<rect x="1728" y="221" class="st2" width="192" height="196"/>
	<rect y="442" class="st2" width="192" height="196"/>
	<rect x="216" y="442" class="st2" width="192" height="196"/>
	<rect x="432" y="442" class="st2" width="192" height="196"/>
	<rect x="648" y="442" class="st2" width="192" height="196"/>
	<rect x="864" y="442" class="st2" width="192" height="196"/>
	<rect x="1080" y="442" class="st2" width="192" height="196"/>
	<rect x="1296" y="442" class="st2" width="192" height="196"/>
	<rect x="1512" y="442" class="st2" width="192" height="196"/>
	<rect x="1728" y="442" class="st2" width="192" height="196"/>
	<rect y="663" class="st2" width="192" height="196"/>
	<rect x="216" y="663" class="st2" width="192" height="196"/>
	<rect x="432" y="663" class="st2" width="192" height="196"/>
	<rect x="648" y="663" class="st2" width="192" height="196"/>
	<rect x="864" y="663" class="st2" width="192" height="196"/>
	<rect x="1080" y="663" class="st2" width="192" height="196"/>
	<rect x="1296" y="663" class="st2" width="192" height="196"/>
	<rect x="1512" y="663" class="st2" width="192" height="196"/>
	<rect x="1728" y="663" class="st2" width="192" height="196"/>
	<rect y="884" class="st2" width="192" height="196"/>
	<rect x="216" y="884" class="st2" width="192" height="196"/>
	<rect x="432" y="884" class="st2" width="192" height="196"/>
	<rect x="648" y="884" class="st2" width="192" height="196"/>
	<rect x="864" y="884" class="st2" width="192" height="196"/>
	<rect x="1080" y="884" class="st2" width="192" height="196"/>
	<rect x="1296" y="884" class="st2" width="192" height="196"/>
	<rect x="1512" y="884" class="st2" width="192" height="196"/>
	<rect x="1728" y="884" class="st2" width="192" height="196"/>
</g>
<g id="Layer_2_copy" class="st3">
	<g class="st4">
		<rect y="0" class="st5" width="192" height="196"/>
		<rect x="432" y="0" class="st5" width="192" height="196"/>
		<rect x="864" y="0" class="st5" width="192" height="196"/>
		<rect x="1296" y="0" class="st5" width="192" height="196"/>
		<rect x="1728" y="0" class="st5" width="192" height="196"/>
		<rect x="216" y="221" class="st5" width="192" height="196"/>
		<rect x="648" y="221" class="st5" width="192" height="196"/>
		<rect x="1080" y="221" class="st5" width="192" height="196"/>
		<rect x="1512" y="221" class="st5" width="192" height="196"/>
		<rect y="442" class="st5" width="192" height="196"/>
		<rect x="432" y="442" class="st5" width="192" height="196"/>
		<rect x="864" y="442" class="st5" width="192" height="196"/>
		<rect x="1296" y="442" class="st5" width="192" height="196"/>
		<rect x="1728" y="442" class="st5" width="192" height="196"/>
		<rect x="216" y="663" class="st5" width="192" height="196"/>
		<rect x="648" y="663" class="st5" width="192" height="196"/>
		<rect x="1080" y="663" class="st5" width="192" height="196"/>
		<rect x="1512" y="663" class="st5" width="192" height="196"/>
		<rect y="884" class="st5" width="192" height="196"/>
		<rect x="432" y="884" class="st5" width="192" height="196"/>
		<rect x="864" y="884" class="st5" width="192" height="196"/>
		<rect x="1296" y="884" class="st5" width="192" height="196"/>
		<rect x="1728" y="884" class="st5" width="192" height="196"/>
	</g>
</g>
<g id="Layer_4" class="st6">
	<g>
		<g>
			<rect class="st7" width="192" height="196"/>
			<g>
				<g>
					<path class="st8" d="M159.6,94.6c-20.2,28.3-8.5,67.5-43.3,67.5s-67.5-21.6-82.8-53.5c-15.1-31.4,13.8-50.9,42-71.3
						C98.5,20.8,178.7,67.9,159.6,94.6z"/>
				</g>
				<g>
					<path class="st0" d="M71.8,98.4C71.8,84.4,83.2,73,97.2,73c1.2,0,2.3,0.1,3.4,0.2c-2.1-0.6-4.3-0.9-6.6-0.9
						c-14.1,0-25.5,11.4-25.5,25.5c0,12.9,9.6,23.6,22,25.2C79.8,120.1,71.8,110.2,71.8,98.4z"/>
					<path class="st0" d="M119.5,97.8c0-11.8-8-21.7-18.9-24.6c-1.1-0.2-2.3-0.2-3.4-0.2c-14.1,0-25.5,11.4-25.5,25.5
						c0,11.8,8,21.7,18.9,24.6c1.1,0.2,2.3,0.2,3.4,0.2C108.1,123.3,119.5,111.9,119.5,97.8z"/>
					<path class="st9" d="M97.6,72.6c10.9,2.9,18.9,12.8,18.9,24.6c0,14.1-11.4,25.5-25.5,25.5c-1.2,0-2.3-0.1-3.4-0.2
						c2.1,0.6,4.3,0.9,6.6,0.9c14.1,0,25.5-11.4,25.5-25.5C119.7,84.9,110.1,74.3,97.6,72.6z"/>
				</g>
				<path class="st10" d="M76.8,91.7c-2.3-1.7-2.3-5.5-0.1-8.4c2.2-2.9,5.8-3.9,8.1-2.2c2.3,1.7-1.8,2.4-4,5.3
					C78.6,89.3,79.1,93.4,76.8,91.7z"/>
			</g>
		</g>
		<g>
			<rect x="432.5" class="st7" width="192" height="196"/>
			<g>
				<g>
					<path class="st8" d="M592.1,94.6c-20.2,28.3-8.5,67.5-43.3,67.5c-34.8,0-67.5-21.6-82.8-53.5c-15.1-31.4,13.8-50.9,42-71.3
						C531,20.8,611.2,67.9,592.1,94.6z"/>
				</g>
				<g>
					<path class="st0" d="M504.3,98.4c0-14.1,11.4-25.5,25.5-25.5c1.2,0,2.3,0.1,3.4,0.2c-2.1-0.6-4.3-0.9-6.6-0.9
						c-14.1,0-25.5,11.4-25.5,25.5c0,12.9,9.6,23.6,22,25.2C512.3,120.1,504.3,110.2,504.3,98.4z"/>
					<path class="st0" d="M552,97.8c0-11.8-8-21.7-18.9-24.6c-1.1-0.2-2.3-0.2-3.4-0.2c-14.1,0-25.5,11.4-25.5,25.5
						c0,11.8,8,21.7,18.9,24.6c1.1,0.2,2.3,0.2,3.4,0.2C540.6,123.3,552,111.9,552,97.8z"/>
					<path class="st9" d="M530.1,72.6C541,75.5,549,85.4,549,97.2c0,14.1-11.4,25.5-25.5,25.5c-1.2,0-2.3-0.1-3.4-0.2
						c2.1,0.6,4.3,0.9,6.6,0.9c14.1,0,25.5-11.4,25.5-25.5C552.2,84.9,542.6,74.3,530.1,72.6z"/>
				</g>
				<path class="st10" d="M509.3,91.7c-2.3-1.7-2.3-5.5-0.1-8.4c2.2-2.9,5.8-3.9,8.1-2.2c2.3,1.7-1.8,2.4-4,5.3
					C511.1,89.3,511.6,93.4,509.3,91.7z"/>
			</g>
		</g>
		<g>
			<rect x="865" class="st7" width="192" height="196"/>
			<g>
				<g>
					<path class="st8" d="M1024.6,94.6c-20.2,28.3-8.5,67.5-43.3,67.5c-34.8,0-67.5-21.6-82.8-53.5c-15.1-31.4,13.8-50.9,42-71.3
						C963.5,20.8,1043.7,67.9,1024.6,94.6z"/>
				</g>
				<g>
					<path class="st0" d="M936.8,98.4c0-14.1,11.4-25.5,25.5-25.5c1.2,0,2.3,0.1,3.4,0.2c-2.1-0.6-4.3-0.9-6.6-0.9
						c-14.1,0-25.5,11.4-25.5,25.5c0,12.9,9.6,23.6,22,25.2C944.8,120.1,936.8,110.2,936.8,98.4z"/>
					<path class="st0" d="M984.5,97.8c0-11.8-8-21.7-18.9-24.6c-1.1-0.2-2.3-0.2-3.4-0.2c-14.1,0-25.5,11.4-25.5,25.5
						c0,11.8,8,21.7,18.9,24.6c1.1,0.2,2.3,0.2,3.4,0.2C973.1,123.3,984.5,111.9,984.5,97.8z"/>
					<path class="st9" d="M962.6,72.6c10.9,2.9,18.9,12.8,18.9,24.6c0,14.1-11.4,25.5-25.5,25.5c-1.2,0-2.3-0.1-3.4-0.2
						c2.1,0.6,4.3,0.9,6.6,0.9c14.1,0,25.5-11.4,25.5-25.5C984.7,84.9,975.1,74.3,962.6,72.6z"/>
				</g>
				<path class="st10" d="M941.8,91.7c-2.3-1.7-2.3-5.5-0.1-8.4c2.2-2.9,5.8-3.9,8.1-2.2c2.3,1.7-1.8,2.4-4,5.3
					C943.6,89.3,944.1,93.4,941.8,91.7z"/>
			</g>
		</g>
		<g>
			<rect x="1295.5" class="st7" width="192" height="196"/>
			<g>
				<g>
					<path class="st8" d="M1455.1,94.6c-20.2,28.3-8.5,67.5-43.3,67.5c-34.8,0-67.5-21.6-82.8-53.5c-15.1-31.4,13.8-50.9,42-71.3
						C1394,20.8,1474.2,67.9,1455.1,94.6z"/>
				</g>
				<g>
					<path class="st0" d="M1367.3,98.4c0-14.1,11.4-25.5,25.5-25.5c1.2,0,2.3,0.1,3.4,0.2c-2.1-0.6-4.3-0.9-6.6-0.9
						c-14.1,0-25.5,11.4-25.5,25.5c0,12.9,9.6,23.6,22,25.2C1375.3,120.1,1367.3,110.2,1367.3,98.4z"/>
					<path class="st0" d="M1415,97.8c0-11.8-8-21.7-18.9-24.6c-1.1-0.2-2.3-0.2-3.4-0.2c-14.1,0-25.5,11.4-25.5,25.5
						c0,11.8,8,21.7,18.9,24.6c1.1,0.2,2.3,0.2,3.4,0.2C1403.6,123.3,1415,111.9,1415,97.8z"/>
					<path class="st9" d="M1393.1,72.6c10.9,2.9,18.9,12.8,18.9,24.6c0,14.1-11.4,25.5-25.5,25.5c-1.2,0-2.3-0.1-3.4-0.2
						c2.1,0.6,4.3,0.9,6.6,0.9c14.1,0,25.5-11.4,25.5-25.5C1415.2,84.9,1405.6,74.3,1393.1,72.6z"/>
				</g>
				<path class="st10" d="M1372.3,91.7c-2.3-1.7-2.3-5.5-0.1-8.4c2.2-2.9,5.8-3.9,8.1-2.2c2.3,1.7-1.8,2.4-4,5.3
					C1374.1,89.3,1374.6,93.4,1372.3,91.7z"/>
			</g>
		</g>
		<g>
			<rect x="1728" class="st7" width="192" height="196"/>
			<g>
				<g>
					<path class="st8" d="M1887.6,94.6c-20.2,28.3-8.5,67.5-43.3,67.5c-34.8,0-67.5-21.6-82.8-53.5c-15.1-31.4,13.8-50.9,42-71.3
						C1826.5,20.8,1906.7,67.9,1887.6,94.6z"/>
				</g>
				<g>
					<path class="st0" d="M1799.8,98.4c0-14.1,11.4-25.5,25.5-25.5c1.2,0,2.3,0.1,3.4,0.2c-2.1-0.6-4.3-0.9-6.6-0.9
						c-14.1,0-25.5,11.4-25.5,25.5c0,12.9,9.6,23.6,22,25.2C1807.8,120.1,1799.8,110.2,1799.8,98.4z"/>
					<path class="st0" d="M1847.5,97.8c0-11.8-8-21.7-18.9-24.6c-1.1-0.2-2.3-0.2-3.4-0.2c-14.1,0-25.5,11.4-25.5,25.5
						c0,11.8,8,21.7,18.9,24.6c1.1,0.2,2.3,0.2,3.4,0.2C1836.1,123.3,1847.5,111.9,1847.5,97.8z"/>
					<path class="st9" d="M1825.6,72.6c10.9,2.9,18.9,12.8,18.9,24.6c0,14.1-11.4,25.5-25.5,25.5c-1.2,0-2.3-0.1-3.4-0.2
						c2.1,0.6,4.3,0.9,6.6,0.9c14.1,0,25.5-11.4,25.5-25.5C1847.7,84.9,1838.1,74.3,1825.6,72.6z"/>
				</g>
				<path class="st10" d="M1804.8,91.7c-2.3-1.7-2.3-5.5-0.1-8.4c2.2-2.9,5.8-3.9,8.1-2.2c2.3,1.7-1.8,2.4-4,5.3
					C1806.6,89.3,1807.1,93.4,1804.8,91.7z"/>
			</g>
		</g>
	</g>
	<g>
		<g>
			<rect y="442.5" class="st7" width="192" height="196"/>
			<g>
				<g>
					<path class="st8" d="M159.6,537.1c-20.2,28.3-8.5,67.5-43.3,67.5S48.9,583,33.6,551.1c-15.1-31.4,13.8-50.9,42-71.3
						C98.5,463.3,178.7,510.4,159.6,537.1z"/>
				</g>
				<g>
					<path class="st0" d="M71.8,540.9c0-14.1,11.4-25.5,25.5-25.5c1.2,0,2.3,0.1,3.4,0.2c-2.1-0.6-4.3-0.9-6.6-0.9
						c-14.1,0-25.5,11.4-25.5,25.5c0,12.9,9.6,23.6,22,25.2C79.8,562.6,71.8,552.7,71.8,540.9z"/>
					<path class="st0" d="M119.5,540.3c0-11.8-8-21.7-18.9-24.6c-1.1-0.2-2.3-0.2-3.4-0.2c-14.1,0-25.5,11.4-25.5,25.5
						c0,11.8,8,21.7,18.9,24.6c1.1,0.2,2.3,0.2,3.4,0.2C108.1,565.8,119.5,554.4,119.5,540.3z"/>
					<path class="st9" d="M97.6,515.1c10.9,2.9,18.9,12.8,18.9,24.6c0,14.1-11.4,25.5-25.5,25.5c-1.2,0-2.3-0.1-3.4-0.2
						c2.1,0.6,4.3,0.9,6.6,0.9c14.1,0,25.5-11.4,25.5-25.5C119.7,527.4,110.1,516.8,97.6,515.1z"/>
				</g>
				<path class="st10" d="M76.8,534.2c-2.3-1.7-2.3-5.5-0.1-8.4c2.2-2.9,5.8-3.9,8.1-2.2c2.3,1.7-1.8,2.4-4,5.3
					C78.6,531.8,79.1,535.9,76.8,534.2z"/>
			</g>
		</g>
		<g>
			<rect x="432.5" y="442.5" class="st7" width="192" height="196"/>
			<g>
				<g>
					<path class="st8" d="M592.1,537.1c-20.2,28.3-8.5,67.5-43.3,67.5c-34.8,0-67.5-21.6-82.8-53.5c-15.1-31.4,13.8-50.9,42-71.3
						C531,463.3,611.2,510.4,592.1,537.1z"/>
				</g>
				<g>
					<path class="st0" d="M504.3,540.9c0-14.1,11.4-25.5,25.5-25.5c1.2,0,2.3,0.1,3.4,0.2c-2.1-0.6-4.3-0.9-6.6-0.9
						c-14.1,0-25.5,11.4-25.5,25.5c0,12.9,9.6,23.6,22,25.2C512.3,562.6,504.3,552.7,504.3,540.9z"/>
					<path class="st0" d="M552,540.3c0-11.8-8-21.7-18.9-24.6c-1.1-0.2-2.3-0.2-3.4-0.2c-14.1,0-25.5,11.4-25.5,25.5
						c0,11.8,8,21.7,18.9,24.6c1.1,0.2,2.3,0.2,3.4,0.2C540.6,565.8,552,554.4,552,540.3z"/>
					<path class="st9" d="M530.1,515.1C541,518,549,527.9,549,539.7c0,14.1-11.4,25.5-25.5,25.5c-1.2,0-2.3-0.1-3.4-0.2
						c2.1,0.6,4.3,0.9,6.6,0.9c14.1,0,25.5-11.4,25.5-25.5C552.2,527.4,542.6,516.8,530.1,515.1z"/>
				</g>
				<path class="st10" d="M509.3,534.2c-2.3-1.7-2.3-5.5-0.1-8.4c2.2-2.9,5.8-3.9,8.1-2.2c2.3,1.7-1.8,2.4-4,5.3
					C511.1,531.8,511.6,535.9,509.3,534.2z"/>
			</g>
		</g>
		<g>
			<rect x="865" y="442.5" class="st7" width="192" height="196"/>
			<g>
				<g>
					<path class="st8" d="M1024.6,537.1c-20.2,28.3-8.5,67.5-43.3,67.5c-34.8,0-67.5-21.6-82.8-53.5c-15.1-31.4,13.8-50.9,42-71.3
						C963.5,463.3,1043.7,510.4,1024.6,537.1z"/>
				</g>
				<g>
					<path class="st0" d="M936.8,540.9c0-14.1,11.4-25.5,25.5-25.5c1.2,0,2.3,0.1,3.4,0.2c-2.1-0.6-4.3-0.9-6.6-0.9
						c-14.1,0-25.5,11.4-25.5,25.5c0,12.9,9.6,23.6,22,25.2C944.8,562.6,936.8,552.7,936.8,540.9z"/>
					<path class="st0" d="M984.5,540.3c0-11.8-8-21.7-18.9-24.6c-1.1-0.2-2.3-0.2-3.4-0.2c-14.1,0-25.5,11.4-25.5,25.5
						c0,11.8,8,21.7,18.9,24.6c1.1,0.2,2.3,0.2,3.4,0.2C973.1,565.8,984.5,554.4,984.5,540.3z"/>
					<path class="st9" d="M962.6,515.1c10.9,2.9,18.9,12.8,18.9,24.6c0,14.1-11.4,25.5-25.5,25.5c-1.2,0-2.3-0.1-3.4-0.2
						c2.1,0.6,4.3,0.9,6.6,0.9c14.1,0,25.5-11.4,25.5-25.5C984.7,527.4,975.1,516.8,962.6,515.1z"/>
				</g>
				<path class="st10" d="M941.8,534.2c-2.3-1.7-2.3-5.5-0.1-8.4c2.2-2.9,5.8-3.9,8.1-2.2c2.3,1.7-1.8,2.4-4,5.3
					C943.6,531.8,944.1,535.9,941.8,534.2z"/>
			</g>
		</g>
		<g>
			<rect x="1295.5" y="442.5" class="st7" width="192" height="196"/>
			<g>
				<g>
					<path class="st8" d="M1455.1,537.1c-20.2,28.3-8.5,67.5-43.3,67.5c-34.8,0-67.5-21.6-82.8-53.5c-15.1-31.4,13.8-50.9,42-71.3
						C1394,463.3,1474.2,510.4,1455.1,537.1z"/>
				</g>
				<g>
					<path class="st0" d="M1367.3,540.9c0-14.1,11.4-25.5,25.5-25.5c1.2,0,2.3,0.1,3.4,0.2c-2.1-0.6-4.3-0.9-6.6-0.9
						c-14.1,0-25.5,11.4-25.5,25.5c0,12.9,9.6,23.6,22,25.2C1375.3,562.6,1367.3,552.7,1367.3,540.9z"/>
					<path class="st0" d="M1415,540.3c0-11.8-8-21.7-18.9-24.6c-1.1-0.2-2.3-0.2-3.4-0.2c-14.1,0-25.5,11.4-25.5,25.5
						c0,11.8,8,21.7,18.9,24.6c1.1,0.2,2.3,0.2,3.4,0.2C1403.6,565.8,1415,554.4,1415,540.3z"/>
					<path class="st9" d="M1393.1,515.1c10.9,2.9,18.9,12.8,18.9,24.6c0,14.1-11.4,25.5-25.5,25.5c-1.2,0-2.3-0.1-3.4-0.2
						c2.1,0.6,4.3,0.9,6.6,0.9c14.1,0,25.5-11.4,25.5-25.5C1415.2,527.4,1405.6,516.8,1393.1,515.1z"/>
				</g>
				<path class="st10" d="M1372.3,534.2c-2.3-1.7-2.3-5.5-0.1-8.4c2.2-2.9,5.8-3.9,8.1-2.2c2.3,1.7-1.8,2.4-4,5.3
					C1374.1,531.8,1374.6,535.9,1372.3,534.2z"/>
			</g>
		</g>
		<g>
			<rect x="1728" y="442.5" class="st7" width="192" height="196"/>
			<g>
				<g>
					<path class="st8" d="M1887.6,537.1c-20.2,28.3-8.5,67.5-43.3,67.5c-34.8,0-67.5-21.6-82.8-53.5c-15.1-31.4,13.8-50.9,42-71.3
						C1826.5,463.3,1906.7,510.4,1887.6,537.1z"/>
				</g>
				<g>
					<path class="st0" d="M1799.8,540.9c0-14.1,11.4-25.5,25.5-25.5c1.2,0,2.3,0.1,3.4,0.2c-2.1-0.6-4.3-0.9-6.6-0.9
						c-14.1,0-25.5,11.4-25.5,25.5c0,12.9,9.6,23.6,22,25.2C1807.8,562.6,1799.8,552.7,1799.8,540.9z"/>
					<path class="st0" d="M1847.5,540.3c0-11.8-8-21.7-18.9-24.6c-1.1-0.2-2.3-0.2-3.4-0.2c-14.1,0-25.5,11.4-25.5,25.5
						c0,11.8,8,21.7,18.9,24.6c1.1,0.2,2.3,0.2,3.4,0.2C1836.1,565.8,1847.5,554.4,1847.5,540.3z"/>
					<path class="st9" d="M1825.6,515.1c10.9,2.9,18.9,12.8,18.9,24.6c0,14.1-11.4,25.5-25.5,25.5c-1.2,0-2.3-0.1-3.4-0.2
						c2.1,0.6,4.3,0.9,6.6,0.9c14.1,0,25.5-11.4,25.5-25.5C1847.7,527.4,1838.1,516.8,1825.6,515.1z"/>
				</g>
				<path class="st10" d="M1804.8,534.2c-2.3-1.7-2.3-5.5-0.1-8.4c2.2-2.9,5.8-3.9,8.1-2.2c2.3,1.7-1.8,2.4-4,5.3
					C1806.6,531.8,1807.1,535.9,1804.8,534.2z"/>
			</g>
		</g>
	</g>
	<g>
		<g>
			<rect y="884" class="st7" width="192" height="196"/>
			<g>
				<g>
					<path class="st8" d="M159.6,978.6c-20.2,28.3-8.5,67.5-43.3,67.5s-67.5-21.6-82.8-53.5c-15.1-31.4,13.8-50.9,42-71.3
						C98.5,904.8,178.7,951.9,159.6,978.6z"/>
				</g>
				<g>
					<path class="st0" d="M71.8,982.4c0-14.1,11.4-25.5,25.5-25.5c1.2,0,2.3,0.1,3.4,0.2c-2.1-0.6-4.3-0.9-6.6-0.9
						c-14.1,0-25.5,11.4-25.5,25.5c0,12.9,9.6,23.6,22,25.2C79.8,1004.1,71.8,994.2,71.8,982.4z"/>
					<path class="st0" d="M119.5,981.8c0-11.8-8-21.7-18.9-24.6c-1.1-0.2-2.3-0.2-3.4-0.2c-14.1,0-25.5,11.4-25.5,25.5
						c0,11.8,8,21.7,18.9,24.6c1.1,0.2,2.3,0.2,3.4,0.2C108.1,1007.3,119.5,995.9,119.5,981.8z"/>
					<path class="st9" d="M97.6,956.6c10.9,2.9,18.9,12.8,18.9,24.6c0,14.1-11.4,25.5-25.5,25.5c-1.2,0-2.3-0.1-3.4-0.2
						c2.1,0.6,4.3,0.9,6.6,0.9c14.1,0,25.5-11.4,25.5-25.5C119.7,968.9,110.1,958.3,97.6,956.6z"/>
				</g>
				<path class="st10" d="M76.8,975.7c-2.3-1.7-2.3-5.5-0.1-8.4c2.2-2.9,5.8-3.9,8.1-2.2c2.3,1.7-1.8,2.4-4,5.3
					C78.6,973.3,79.1,977.4,76.8,975.7z"/>
			</g>
		</g>
		<g>
			<rect x="432.5" y="884" class="st7" width="192" height="196"/>
			<g>
				<g>
					<path class="st8" d="M592.1,978.6c-20.2,28.3-8.5,67.5-43.3,67.5c-34.8,0-67.5-21.6-82.8-53.5c-15.1-31.4,13.8-50.9,42-71.3
						C531,904.8,611.2,951.9,592.1,978.6z"/>
				</g>
				<g>
					<path class="st0" d="M504.3,982.4c0-14.1,11.4-25.5,25.5-25.5c1.2,0,2.3,0.1,3.4,0.2c-2.1-0.6-4.3-0.9-6.6-0.9
						c-14.1,0-25.5,11.4-25.5,25.5c0,12.9,9.6,23.6,22,25.2C512.3,1004.1,504.3,994.2,504.3,982.4z"/>
					<path class="st0" d="M552,981.8c0-11.8-8-21.7-18.9-24.6c-1.1-0.2-2.3-0.2-3.4-0.2c-14.1,0-25.5,11.4-25.5,25.5
						c0,11.8,8,21.7,18.9,24.6c1.1,0.2,2.3,0.2,3.4,0.2C540.6,1007.3,552,995.9,552,981.8z"/>
					<path class="st9" d="M530.1,956.6c10.9,2.9,18.9,12.8,18.9,24.6c0,14.1-11.4,25.5-25.5,25.5c-1.2,0-2.3-0.1-3.4-0.2
						c2.1,0.6,4.3,0.9,6.6,0.9c14.1,0,25.5-11.4,25.5-25.5C552.2,968.9,542.6,958.3,530.1,956.6z"/>
				</g>
				<path class="st10" d="M509.3,975.7c-2.3-1.7-2.3-5.5-0.1-8.4c2.2-2.9,5.8-3.9,8.1-2.2c2.3,1.7-1.8,2.4-4,5.3
					C511.1,973.3,511.6,977.4,509.3,975.7z"/>
			</g>
		</g>
		<g>
			<rect x="865" y="884" class="st7" width="192" height="196"/>
			<g>
				<g>
					<path class="st8" d="M1024.6,978.6c-20.2,28.3-8.5,67.5-43.3,67.5c-34.8,0-67.5-21.6-82.8-53.5c-15.1-31.4,13.8-50.9,42-71.3
						C963.5,904.8,1043.7,951.9,1024.6,978.6z"/>
				</g>
				<g>
					<path class="st0" d="M936.8,982.4c0-14.1,11.4-25.5,25.5-25.5c1.2,0,2.3,0.1,3.4,0.2c-2.1-0.6-4.3-0.9-6.6-0.9
						c-14.1,0-25.5,11.4-25.5,25.5c0,12.9,9.6,23.6,22,25.2C944.8,1004.1,936.8,994.2,936.8,982.4z"/>
					<path class="st0" d="M984.5,981.8c0-11.8-8-21.7-18.9-24.6c-1.1-0.2-2.3-0.2-3.4-0.2c-14.1,0-25.5,11.4-25.5,25.5
						c0,11.8,8,21.7,18.9,24.6c1.1,0.2,2.3,0.2,3.4,0.2C973.1,1007.3,984.5,995.9,984.5,981.8z"/>
					<path class="st9" d="M962.6,956.6c10.9,2.9,18.9,12.8,18.9,24.6c0,14.1-11.4,25.5-25.5,25.5c-1.2,0-2.3-0.1-3.4-0.2
						c2.1,0.6,4.3,0.9,6.6,0.9c14.1,0,25.5-11.4,25.5-25.5C984.7,968.9,975.1,958.3,962.6,956.6z"/>
				</g>
				<path class="st10" d="M941.8,975.7c-2.3-1.7-2.3-5.5-0.1-8.4c2.2-2.9,5.8-3.9,8.1-2.2c2.3,1.7-1.8,2.4-4,5.3
					C943.6,973.3,944.1,977.4,941.8,975.7z"/>
			</g>
		</g>
		<g>
			<rect x="1295.5" y="884" class="st7" width="192" height="196"/>
			<g>
				<g>
					<path class="st8" d="M1455.1,978.6c-20.2,28.3-8.5,67.5-43.3,67.5c-34.8,0-67.5-21.6-82.8-53.5c-15.1-31.4,13.8-50.9,42-71.3
						C1394,904.8,1474.2,951.9,1455.1,978.6z"/>
				</g>
				<g>
					<path class="st0" d="M1367.3,982.4c0-14.1,11.4-25.5,25.5-25.5c1.2,0,2.3,0.1,3.4,0.2c-2.1-0.6-4.3-0.9-6.6-0.9
						c-14.1,0-25.5,11.4-25.5,25.5c0,12.9,9.6,23.6,22,25.2C1375.3,1004.1,1367.3,994.2,1367.3,982.4z"/>
					<path class="st0" d="M1415,981.8c0-11.8-8-21.7-18.9-24.6c-1.1-0.2-2.3-0.2-3.4-0.2c-14.1,0-25.5,11.4-25.5,25.5
						c0,11.8,8,21.7,18.9,24.6c1.1,0.2,2.3,0.2,3.4,0.2C1403.6,1007.3,1415,995.9,1415,981.8z"/>
					<path class="st9" d="M1393.1,956.6c10.9,2.9,18.9,12.8,18.9,24.6c0,14.1-11.4,25.5-25.5,25.5c-1.2,0-2.3-0.1-3.4-0.2
						c2.1,0.6,4.3,0.9,6.6,0.9c14.1,0,25.5-11.4,25.5-25.5C1415.2,968.9,1405.6,958.3,1393.1,956.6z"/>
				</g>
				<path class="st10" d="M1372.3,975.7c-2.3-1.7-2.3-5.5-0.1-8.4c2.2-2.9,5.8-3.9,8.1-2.2c2.3,1.7-1.8,2.4-4,5.3
					C1374.1,973.3,1374.6,977.4,1372.3,975.7z"/>
			</g>
		</g>
		<g>
			<rect x="1728" y="884" class="st7" width="192" height="196"/>
			<g>
				<g>
					<path class="st8" d="M1887.6,978.6c-20.2,28.3-8.5,67.5-43.3,67.5c-34.8,0-67.5-21.6-82.8-53.5c-15.1-31.4,13.8-50.9,42-71.3
						C1826.5,904.8,1906.7,951.9,1887.6,978.6z"/>
				</g>
				<g>
					<path class="st0" d="M1799.8,982.4c0-14.1,11.4-25.5,25.5-25.5c1.2,0,2.3,0.1,3.4,0.2c-2.1-0.6-4.3-0.9-6.6-0.9
						c-14.1,0-25.5,11.4-25.5,25.5c0,12.9,9.6,23.6,22,25.2C1807.8,1004.1,1799.8,994.2,1799.8,982.4z"/>
					<path class="st0" d="M1847.5,981.8c0-11.8-8-21.7-18.9-24.6c-1.1-0.2-2.3-0.2-3.4-0.2c-14.1,0-25.5,11.4-25.5,25.5
						c0,11.8,8,21.7,18.9,24.6c1.1,0.2,2.3,0.2,3.4,0.2C1836.1,1007.3,1847.5,995.9,1847.5,981.8z"/>
					<path class="st9" d="M1825.6,956.6c10.9,2.9,18.9,12.8,18.9,24.6c0,14.1-11.4,25.5-25.5,25.5c-1.2,0-2.3-0.1-3.4-0.2
						c2.1,0.6,4.3,0.9,6.6,0.9c14.1,0,25.5-11.4,25.5-25.5C1847.7,968.9,1838.1,958.3,1825.6,956.6z"/>
				</g>
				<path class="st10" d="M1804.8,975.7c-2.3-1.7-2.3-5.5-0.1-8.4c2.2-2.9,5.8-3.9,8.1-2.2c2.3,1.7-1.8,2.4-4,5.3
					C1806.6,973.3,1807.1,977.4,1804.8,975.7z"/>
			</g>
		</g>
	</g>
	<g>
		<g>
			<rect x="1512.5" y="221.5" class="st7" width="192" height="196"/>
			<g>
				<g>
					<path class="st8" d="M1672.1,316.1c-20.2,28.3-8.5,67.5-43.3,67.5c-34.8,0-67.5-21.6-82.8-53.5c-15.1-31.4,13.8-50.9,42-71.3
						C1611,242.3,1691.2,289.4,1672.1,316.1z"/>
				</g>
				<g>
					<path class="st0" d="M1584.3,319.9c0-14.1,11.4-25.5,25.5-25.5c1.2,0,2.3,0.1,3.4,0.2c-2.1-0.6-4.3-0.9-6.6-0.9
						c-14.1,0-25.5,11.4-25.5,25.5c0,12.9,9.6,23.6,22,25.2C1592.3,341.6,1584.3,331.7,1584.3,319.9z"/>
					<path class="st0" d="M1632,319.3c0-11.8-8-21.7-18.9-24.6c-1.1-0.2-2.3-0.2-3.4-0.2c-14.1,0-25.5,11.4-25.5,25.5
						c0,11.8,8,21.7,18.9,24.6c1.1,0.2,2.3,0.2,3.4,0.2C1620.6,344.8,1632,333.4,1632,319.3z"/>
					<path class="st9" d="M1610.1,294.1c10.9,2.9,18.9,12.8,18.9,24.6c0,14.1-11.4,25.5-25.5,25.5c-1.2,0-2.3-0.1-3.4-0.2
						c2.1,0.6,4.3,0.9,6.6,0.9c14.1,0,25.5-11.4,25.5-25.5C1632.2,306.4,1622.6,295.8,1610.1,294.1z"/>
				</g>
				<path class="st10" d="M1589.3,313.2c-2.3-1.7-2.3-5.5-0.1-8.4s5.8-3.9,8.1-2.2c2.3,1.7-1.8,2.4-4,5.3
					C1591.1,310.8,1591.6,314.9,1589.3,313.2z"/>
			</g>
		</g>
		<g>
			<rect x="1078" y="221.5" class="st7" width="192" height="196"/>
			<g>
				<g>
					<path class="st8" d="M1237.6,316.1c-20.2,28.3-8.5,67.5-43.3,67.5c-34.8,0-67.5-21.6-82.8-53.5c-15.1-31.4,13.8-50.9,42-71.3
						C1176.5,242.3,1256.7,289.4,1237.6,316.1z"/>
				</g>
				<g>
					<path class="st0" d="M1149.8,319.9c0-14.1,11.4-25.5,25.5-25.5c1.2,0,2.3,0.1,3.4,0.2c-2.1-0.6-4.3-0.9-6.6-0.9
						c-14.1,0-25.5,11.4-25.5,25.5c0,12.9,9.6,23.6,22,25.2C1157.8,341.6,1149.8,331.7,1149.8,319.9z"/>
					<path class="st0" d="M1197.5,319.3c0-11.8-8-21.7-18.9-24.6c-1.1-0.2-2.3-0.2-3.4-0.2c-14.1,0-25.5,11.4-25.5,25.5
						c0,11.8,8,21.7,18.9,24.6c1.1,0.2,2.3,0.2,3.4,0.2C1186.1,344.8,1197.5,333.4,1197.5,319.3z"/>
					<path class="st9" d="M1175.6,294.1c10.9,2.9,18.9,12.8,18.9,24.6c0,14.1-11.4,25.5-25.5,25.5c-1.2,0-2.3-0.1-3.4-0.2
						c2.1,0.6,4.3,0.9,6.6,0.9c14.1,0,25.5-11.4,25.5-25.5C1197.7,306.4,1188.1,295.8,1175.6,294.1z"/>
				</g>
				<path class="st10" d="M1154.8,313.2c-2.3-1.7-2.3-5.5-0.1-8.4s5.8-3.9,8.1-2.2c2.3,1.7-1.8,2.4-4,5.3
					C1156.6,310.8,1157.1,314.9,1154.8,313.2z"/>
			</g>
		</g>
		<g>
			<rect x="647.5" y="221.5" class="st7" width="192" height="196"/>
			<g>
				<g>
					<path class="st8" d="M807.1,316.1c-20.2,28.3-8.5,67.5-43.3,67.5c-34.8,0-67.5-21.6-82.8-53.5c-15.1-31.4,13.8-50.9,42-71.3
						C746,242.3,826.2,289.4,807.1,316.1z"/>
				</g>
				<g>
					<path class="st0" d="M719.3,319.9c0-14.1,11.4-25.5,25.5-25.5c1.2,0,2.3,0.1,3.4,0.2c-2.1-0.6-4.3-0.9-6.6-0.9
						c-14.1,0-25.5,11.4-25.5,25.5c0,12.9,9.6,23.6,22,25.2C727.3,341.6,719.3,331.7,719.3,319.9z"/>
					<path class="st0" d="M767,319.3c0-11.8-8-21.7-18.9-24.6c-1.1-0.2-2.3-0.2-3.4-0.2c-14.1,0-25.5,11.4-25.5,25.5
						c0,11.8,8,21.7,18.9,24.6c1.1,0.2,2.3,0.2,3.4,0.2C755.6,344.8,767,333.4,767,319.3z"/>
					<path class="st9" d="M745.1,294.1C756,297,764,306.9,764,318.7c0,14.1-11.4,25.5-25.5,25.5c-1.2,0-2.3-0.1-3.4-0.2
						c2.1,0.6,4.3,0.9,6.6,0.9c14.1,0,25.5-11.4,25.5-25.5C767.2,306.4,757.6,295.8,745.1,294.1z"/>
				</g>
				<path class="st10" d="M724.3,313.2c-2.3-1.7-2.3-5.5-0.1-8.4s5.8-3.9,8.1-2.2c2.3,1.7-1.8,2.4-4,5.3
					C726.1,310.8,726.6,314.9,724.3,313.2z"/>
			</g>
		</g>
		<g>
			<rect x="215" y="221.5" class="st7" width="192" height="196"/>
			<g>
				<g>
					<path class="st8" d="M374.6,316.1c-20.2,28.3-8.5,67.5-43.3,67.5s-67.5-21.6-82.8-53.5c-15.1-31.4,13.8-50.9,42-71.3
						C313.5,242.3,393.7,289.4,374.6,316.1z"/>
				</g>
				<g>
					<path class="st0" d="M286.8,319.9c0-14.1,11.4-25.5,25.5-25.5c1.2,0,2.3,0.1,3.4,0.2c-2.1-0.6-4.3-0.9-6.6-0.9
						c-14.1,0-25.5,11.4-25.5,25.5c0,12.9,9.6,23.6,22,25.2C294.8,341.6,286.8,331.7,286.8,319.9z"/>
					<path class="st0" d="M334.5,319.3c0-11.8-8-21.7-18.9-24.6c-1.1-0.2-2.3-0.2-3.4-0.2c-14.1,0-25.5,11.4-25.5,25.5
						c0,11.8,8,21.7,18.9,24.6c1.1,0.2,2.3,0.2,3.4,0.2C323.1,344.8,334.5,333.4,334.5,319.3z"/>
					<path class="st9" d="M312.6,294.1c10.9,2.9,18.9,12.8,18.9,24.6c0,14.1-11.4,25.5-25.5,25.5c-1.2,0-2.3-0.1-3.4-0.2
						c2.1,0.6,4.3,0.9,6.6,0.9c14.1,0,25.5-11.4,25.5-25.5C334.7,306.4,325.1,295.8,312.6,294.1z"/>
				</g>
				<path class="st10" d="M291.8,313.2c-2.3-1.7-2.3-5.5-0.1-8.4s5.8-3.9,8.1-2.2c2.3,1.7-1.8,2.4-4,5.3
					C293.6,310.8,294.1,314.9,291.8,313.2z"/>
			</g>
		</g>
	</g>
	<g>
		<g>
			<rect x="1513" y="662.5" class="st7" width="192" height="196"/>
			<g>
				<g>
					<path class="st8" d="M1672.6,757.1c-20.2,28.3-8.5,67.5-43.3,67.5c-34.8,0-67.5-21.6-82.8-53.5c-15.1-31.4,13.8-50.9,42-71.3
						C1611.5,683.3,1691.7,730.4,1672.6,757.1z"/>
				</g>
				<g>
					<path class="st0" d="M1584.8,760.9c0-14.1,11.4-25.5,25.5-25.5c1.2,0,2.3,0.1,3.4,0.2c-2.1-0.6-4.3-0.9-6.6-0.9
						c-14.1,0-25.5,11.4-25.5,25.5c0,12.9,9.6,23.6,22,25.2C1592.8,782.6,1584.8,772.7,1584.8,760.9z"/>
					<path class="st0" d="M1632.5,760.3c0-11.8-8-21.7-18.9-24.6c-1.1-0.2-2.3-0.2-3.4-0.2c-14.1,0-25.5,11.4-25.5,25.5
						c0,11.8,8,21.7,18.9,24.6c1.1,0.2,2.3,0.2,3.4,0.2C1621.1,785.8,1632.5,774.4,1632.5,760.3z"/>
					<path class="st9" d="M1610.6,735.1c10.9,2.9,18.9,12.8,18.9,24.6c0,14.1-11.4,25.5-25.5,25.5c-1.2,0-2.3-0.1-3.4-0.2
						c2.1,0.6,4.3,0.9,6.6,0.9c14.1,0,25.5-11.4,25.5-25.5C1632.7,747.4,1623.1,736.8,1610.6,735.1z"/>
				</g>
				<path class="st10" d="M1589.8,754.2c-2.3-1.7-2.3-5.5-0.1-8.4c2.2-2.9,5.8-3.9,8.1-2.2c2.3,1.7-1.8,2.4-4,5.3
					C1591.6,751.8,1592.1,755.9,1589.8,754.2z"/>
			</g>
		</g>
		<g>
			<rect x="1078.5" y="662.5" class="st7" width="192" height="196"/>
			<g>
				<g>
					<path class="st8" d="M1238.1,757.1c-20.2,28.3-8.5,67.5-43.3,67.5c-34.8,0-67.5-21.6-82.8-53.5c-15.1-31.4,13.8-50.9,42-71.3
						C1177,683.3,1257.2,730.4,1238.1,757.1z"/>
				</g>
				<g>
					<path class="st0" d="M1150.3,760.9c0-14.1,11.4-25.5,25.5-25.5c1.2,0,2.3,0.1,3.4,0.2c-2.1-0.6-4.3-0.9-6.6-0.9
						c-14.1,0-25.5,11.4-25.5,25.5c0,12.9,9.6,23.6,22,25.2C1158.3,782.6,1150.3,772.7,1150.3,760.9z"/>
					<path class="st0" d="M1198,760.3c0-11.8-8-21.7-18.9-24.6c-1.1-0.2-2.3-0.2-3.4-0.2c-14.1,0-25.5,11.4-25.5,25.5
						c0,11.8,8,21.7,18.9,24.6c1.1,0.2,2.3,0.2,3.4,0.2C1186.6,785.8,1198,774.4,1198,760.3z"/>
					<path class="st9" d="M1176.1,735.1c10.9,2.9,18.9,12.8,18.9,24.6c0,14.1-11.4,25.5-25.5,25.5c-1.2,0-2.3-0.1-3.4-0.2
						c2.1,0.6,4.3,0.9,6.6,0.9c14.1,0,25.5-11.4,25.5-25.5C1198.2,747.4,1188.6,736.8,1176.1,735.1z"/>
				</g>
				<path class="st10" d="M1155.3,754.2c-2.3-1.7-2.3-5.5-0.1-8.4c2.2-2.9,5.8-3.9,8.1-2.2c2.3,1.7-1.8,2.4-4,5.3
					C1157.1,751.8,1157.6,755.9,1155.3,754.2z"/>
			</g>
		</g>
		<g>
			<rect x="648" y="662.5" class="st7" width="192" height="196"/>
			<g>
				<g>
					<path class="st8" d="M807.6,757.1c-20.2,28.3-8.5,67.5-43.3,67.5c-34.8,0-67.5-21.6-82.8-53.5c-15.1-31.4,13.8-50.9,42-71.3
						C746.5,683.3,826.7,730.4,807.6,757.1z"/>
				</g>
				<g>
					<path class="st0" d="M719.8,760.9c0-14.1,11.4-25.5,25.5-25.5c1.2,0,2.3,0.1,3.4,0.2c-2.1-0.6-4.3-0.9-6.6-0.9
						c-14.1,0-25.5,11.4-25.5,25.5c0,12.9,9.6,23.6,22,25.2C727.8,782.6,719.8,772.7,719.8,760.9z"/>
					<path class="st0" d="M767.5,760.3c0-11.8-8-21.7-18.9-24.6c-1.1-0.2-2.3-0.2-3.4-0.2c-14.1,0-25.5,11.4-25.5,25.5
						c0,11.8,8,21.7,18.9,24.6c1.1,0.2,2.3,0.2,3.4,0.2C756.1,785.8,767.5,774.4,767.5,760.3z"/>
					<path class="st9" d="M745.6,735.1c10.9,2.9,18.9,12.8,18.9,24.6c0,14.1-11.4,25.5-25.5,25.5c-1.2,0-2.3-0.1-3.4-0.2
						c2.1,0.6,4.3,0.9,6.6,0.9c14.1,0,25.5-11.4,25.5-25.5C767.7,747.4,758.1,736.8,745.6,735.1z"/>
				</g>
				<path class="st10" d="M724.8,754.2c-2.3-1.7-2.3-5.5-0.1-8.4c2.2-2.9,5.8-3.9,8.1-2.2c2.3,1.7-1.8,2.4-4,5.3
					C726.6,751.8,727.1,755.9,724.8,754.2z"/>
			</g>
		</g>
		<g>
			<rect x="215.5" y="662.5" class="st7" width="192" height="196"/>
			<g>
				<g>
					<path class="st8" d="M375.1,757.1c-20.2,28.3-8.5,67.5-43.3,67.5s-67.5-21.6-82.8-53.5c-15.1-31.4,13.8-50.9,42-71.3
						C314,683.3,394.2,730.4,375.1,757.1z"/>
				</g>
				<g>
					<path class="st0" d="M287.3,760.9c0-14.1,11.4-25.5,25.5-25.5c1.2,0,2.3,0.1,3.4,0.2c-2.1-0.6-4.3-0.9-6.6-0.9
						c-14.1,0-25.5,11.4-25.5,25.5c0,12.9,9.6,23.6,22,25.2C295.3,782.6,287.3,772.7,287.3,760.9z"/>
					<path class="st0" d="M335,760.3c0-11.8-8-21.7-18.9-24.6c-1.1-0.2-2.3-0.2-3.4-0.2c-14.1,0-25.5,11.4-25.5,25.5
						c0,11.8,8,21.7,18.9,24.6c1.1,0.2,2.3,0.2,3.4,0.2C323.6,785.8,335,774.4,335,760.3z"/>
					<path class="st9" d="M313.1,735.1C324,738,332,747.9,332,759.7c0,14.1-11.4,25.5-25.5,25.5c-1.2,0-2.3-0.1-3.4-0.2
						c2.1,0.6,4.3,0.9,6.6,0.9c14.1,0,25.5-11.4,25.5-25.5C335.2,747.4,325.6,736.8,313.1,735.1z"/>
				</g>
				<path class="st10" d="M292.3,754.2c-2.3-1.7-2.3-5.5-0.1-8.4c2.2-2.9,5.8-3.9,8.1-2.2c2.3,1.7-1.8,2.4-4,5.3
					C294.1,751.8,294.6,755.9,292.3,754.2z"/>
			</g>
		</g>
	</g>
</g>
</svg>
