<?xml version="1.0" encoding="utf-8"?>
<!-- Generator: Adobe Illustrator 22.1.0, SVG Export Plug-In . SVG Version: 6.00 Build 0)  -->
<svg version="1.1" xmlns="http://www.w3.org/2000/svg" xmlns:xlink="http://www.w3.org/1999/xlink" x="0px" y="0px"
	 viewBox="0 0 1920 1080" style="enable-background:new 0 0 1920 1080;" xml:space="preserve">
<style type="text/css">
	.st0{fill:#EEAF03;}
	.st1{opacity:0.46;}
	.st2{fill:none;}
	.st3{fill:#FFFFFF;}
	.st4{fill:none;stroke:#EEAF03;stroke-width:1.054;stroke-linecap:round;stroke-miterlimit:10;}
</style>
<g id="Layer_1">
	<rect class="st0" width="1920" height="1080"/>
</g>
<g id="Layer_5" class="st1">
	<g>
		<rect x="431.5" class="st2" width="192" height="196"/>
		<g>
			<path class="st3" d="M569.3,104.3c0,27.3-18.6,49.4-41.5,49.4c-22.9,0-41.5-22.1-41.5-49.4s18.6-70.5,41.5-70.5
				C550.7,33.9,569.3,77.1,569.3,104.3z"/>
			<path class="st0" d="M503.6,70.4l1.9-6.9c0.8-2.9,2-5.7,3.7-8.2l3.5-5.4c0.3-0.4-0.6-0.9-1-0.7c-3.7,2-10.9,7.7-9.5,20.8
				C502.1,70.7,503.4,71,503.6,70.4z"/>
			<circle class="st0" cx="517.3" cy="81.9" r="2"/>
			<circle class="st0" cx="537" cy="81.9" r="2"/>
			<line class="st4" x1="523.7" y1="86.6" x2="530.3" y2="86.6"/>
		</g>
	</g>
	<g>
		<rect class="st2" width="192" height="196"/>
		<g>
			<path class="st3" d="M137.8,104.3c0,27.3-18.6,49.4-41.5,49.4s-41.5-22.1-41.5-49.4s18.6-70.5,41.5-70.5S137.8,77.1,137.8,104.3z
				"/>
			<path class="st0" d="M72.1,70.4l1.9-6.9c0.8-2.9,2-5.7,3.7-8.2l3.5-5.4c0.3-0.4-0.6-0.9-1-0.7c-3.7,2-10.9,7.7-9.5,20.8
				C70.6,70.7,71.9,71,72.1,70.4z"/>
			<circle class="st0" cx="85.8" cy="81.9" r="2"/>
			<circle class="st0" cx="105.5" cy="81.9" r="2"/>
			<line class="st4" x1="92.2" y1="86.6" x2="98.8" y2="86.6"/>
		</g>
	</g>
	<g>
		<rect x="863.5" class="st2" width="192" height="196"/>
		<g>
			<path class="st3" d="M1001.3,104.3c0,27.3-18.6,49.4-41.5,49.4s-41.5-22.1-41.5-49.4s18.6-70.5,41.5-70.5
				S1001.3,77.1,1001.3,104.3z"/>
			<path class="st0" d="M935.6,70.4l1.9-6.9c0.8-2.9,2-5.7,3.7-8.2l3.5-5.4c0.3-0.4-0.6-0.9-1-0.7c-3.7,2-10.9,7.7-9.5,20.8
				C934.1,70.7,935.4,71,935.6,70.4z"/>
			<circle class="st0" cx="949.3" cy="81.9" r="2"/>
			<circle class="st0" cx="969" cy="81.9" r="2"/>
			<line class="st4" x1="955.7" y1="86.6" x2="962.3" y2="86.6"/>
		</g>
	</g>
	<g>
		<rect x="1296" class="st2" width="192" height="196"/>
		<g>
			<path class="st3" d="M1433.8,104.3c0,27.3-18.6,49.4-41.5,49.4c-22.9,0-41.5-22.1-41.5-49.4s18.6-70.5,41.5-70.5
				C1415.2,33.9,1433.8,77.1,1433.8,104.3z"/>
			<path class="st0" d="M1368.1,70.4l1.9-6.9c0.8-2.9,2-5.7,3.7-8.2l3.5-5.4c0.3-0.4-0.6-0.9-1-0.7c-3.7,2-10.9,7.7-9.5,20.8
				C1366.6,70.7,1367.9,71,1368.1,70.4z"/>
			<circle class="st0" cx="1381.8" cy="81.9" r="2"/>
			<circle class="st0" cx="1401.5" cy="81.9" r="2"/>
			<line class="st4" x1="1388.2" y1="86.6" x2="1394.8" y2="86.6"/>
		</g>
	</g>
	<g>
		<rect x="1728" class="st2" width="192" height="196"/>
		<g>
			<path class="st3" d="M1865.8,104.3c0,27.3-18.6,49.4-41.5,49.4s-41.5-22.1-41.5-49.4s18.6-70.5,41.5-70.5
				S1865.8,77.1,1865.8,104.3z"/>
			<path class="st0" d="M1800.1,70.4l1.9-6.9c0.8-2.9,2-5.7,3.7-8.2l3.5-5.4c0.3-0.4-0.6-0.9-1-0.7c-3.7,2-10.9,7.7-9.5,20.8
				C1798.6,70.7,1799.9,71,1800.1,70.4z"/>
			<circle class="st0" cx="1813.8" cy="81.9" r="2"/>
			<circle class="st0" cx="1833.5" cy="81.9" r="2"/>
			<line class="st4" x1="1820.2" y1="86.6" x2="1826.8" y2="86.6"/>
		</g>
	</g>
	<g>
		<rect x="1513.5" y="220.9" class="st2" width="192" height="196"/>
		<g>
			<path class="st3" d="M1651.3,325.2c0,27.3-18.6,49.4-41.5,49.4c-22.9,0-41.5-22.1-41.5-49.4s18.6-70.5,41.5-70.5
				C1632.7,254.7,1651.3,297.9,1651.3,325.2z"/>
			<path class="st0" d="M1585.6,291.3l1.9-6.9c0.8-2.9,2-5.7,3.7-8.2l3.5-5.4c0.3-0.4-0.6-0.9-1-0.7c-3.7,2-10.9,7.7-9.5,20.8
				C1584.1,291.6,1585.4,291.9,1585.6,291.3z"/>
			<circle class="st0" cx="1599.3" cy="302.8" r="2"/>
			<circle class="st0" cx="1619" cy="302.8" r="2"/>
			<line class="st4" x1="1605.7" y1="307.4" x2="1612.3" y2="307.4"/>
		</g>
	</g>
	<g>
		<rect x="1079" y="220.9" class="st2" width="192" height="196"/>
		<g>
			<path class="st3" d="M1216.8,325.2c0,27.3-18.6,49.4-41.5,49.4c-22.9,0-41.5-22.1-41.5-49.4s18.6-70.5,41.5-70.5
				C1198.2,254.7,1216.8,297.9,1216.8,325.2z"/>
			<path class="st0" d="M1151.1,291.3l1.9-6.9c0.8-2.9,2-5.7,3.7-8.2l3.5-5.4c0.3-0.4-0.6-0.9-1-0.7c-3.7,2-10.9,7.7-9.5,20.8
				C1149.6,291.6,1150.9,291.9,1151.1,291.3z"/>
			<circle class="st0" cx="1164.8" cy="302.8" r="2"/>
			<circle class="st0" cx="1184.5" cy="302.8" r="2"/>
			<line class="st4" x1="1171.2" y1="307.4" x2="1177.8" y2="307.4"/>
		</g>
	</g>
	<g>
		<rect x="648.5" y="220.9" class="st2" width="192" height="196"/>
		<g>
			<path class="st3" d="M786.3,325.2c0,27.3-18.6,49.4-41.5,49.4s-41.5-22.1-41.5-49.4s18.6-70.5,41.5-70.5S786.3,297.9,786.3,325.2
				z"/>
			<path class="st0" d="M720.6,291.3l1.9-6.9c0.8-2.9,2-5.7,3.7-8.2l3.5-5.4c0.3-0.4-0.6-0.9-1-0.7c-3.7,2-10.9,7.7-9.5,20.8
				C719.1,291.6,720.4,291.9,720.6,291.3z"/>
			<circle class="st0" cx="734.3" cy="302.8" r="2"/>
			<circle class="st0" cx="754" cy="302.8" r="2"/>
			<line class="st4" x1="740.7" y1="307.4" x2="747.3" y2="307.4"/>
		</g>
	</g>
	<g>
		<rect x="216.5" y="220.9" class="st2" width="192" height="196"/>
		<g>
			<path class="st3" d="M354.3,325.2c0,27.3-18.6,49.4-41.5,49.4c-22.9,0-41.5-22.1-41.5-49.4s18.6-70.5,41.5-70.5
				C335.7,254.7,354.3,297.9,354.3,325.2z"/>
			<path class="st0" d="M288.6,291.3l1.9-6.9c0.8-2.9,2-5.7,3.7-8.2l3.5-5.4c0.3-0.4-0.6-0.9-1-0.7c-3.7,2-10.9,7.7-9.5,20.8
				C287.1,291.6,288.4,291.9,288.6,291.3z"/>
			<circle class="st0" cx="302.3" cy="302.8" r="2"/>
			<circle class="st0" cx="322" cy="302.8" r="2"/>
			<line class="st4" x1="308.7" y1="307.4" x2="315.3" y2="307.4"/>
		</g>
	</g>
	<g>
		<rect x="431.5" y="441.4" class="st2" width="192" height="196"/>
		<g>
			<path class="st3" d="M569.3,545.7c0,27.3-18.6,49.4-41.5,49.4c-22.9,0-41.5-22.1-41.5-49.4c0-27.3,18.6-70.5,41.5-70.5
				C550.7,475.2,569.3,518.4,569.3,545.7z"/>
			<path class="st0" d="M503.6,511.8l1.9-6.9c0.8-2.9,2-5.7,3.7-8.2l3.5-5.4c0.3-0.4-0.6-0.9-1-0.7c-3.7,2-10.9,7.7-9.5,20.8
				C502.1,512.1,503.4,512.4,503.6,511.8z"/>
			<circle class="st0" cx="517.3" cy="523.3" r="2"/>
			<circle class="st0" cx="537" cy="523.3" r="2"/>
			<line class="st4" x1="523.7" y1="527.9" x2="530.3" y2="527.9"/>
		</g>
	</g>
	<g>
		<rect y="441.4" class="st2" width="192" height="196"/>
		<g>
			<path class="st3" d="M137.8,545.7c0,27.3-18.6,49.4-41.5,49.4S54.8,573,54.8,545.7c0-27.3,18.6-70.5,41.5-70.5
				S137.8,518.4,137.8,545.7z"/>
			<path class="st0" d="M72.1,511.8l1.9-6.9c0.8-2.9,2-5.7,3.7-8.2l3.5-5.4c0.3-0.4-0.6-0.9-1-0.7c-3.7,2-10.9,7.7-9.5,20.8
				C70.6,512.1,71.9,512.4,72.1,511.8z"/>
			<circle class="st0" cx="85.8" cy="523.3" r="2"/>
			<circle class="st0" cx="105.5" cy="523.3" r="2"/>
			<line class="st4" x1="92.2" y1="527.9" x2="98.8" y2="527.9"/>
		</g>
	</g>
	<g>
		<rect x="863.5" y="441.4" class="st2" width="192" height="196"/>
		<g>
			<path class="st3" d="M1001.3,545.7c0,27.3-18.6,49.4-41.5,49.4s-41.5-22.1-41.5-49.4c0-27.3,18.6-70.5,41.5-70.5
				S1001.3,518.4,1001.3,545.7z"/>
			<path class="st0" d="M935.6,511.8l1.9-6.9c0.8-2.9,2-5.7,3.7-8.2l3.5-5.4c0.3-0.4-0.6-0.9-1-0.7c-3.7,2-10.9,7.7-9.5,20.8
				C934.1,512.1,935.4,512.4,935.6,511.8z"/>
			<circle class="st0" cx="949.3" cy="523.3" r="2"/>
			<circle class="st0" cx="969" cy="523.3" r="2"/>
			<line class="st4" x1="955.7" y1="527.9" x2="962.3" y2="527.9"/>
		</g>
	</g>
	<g>
		<rect x="1296" y="441.4" class="st2" width="192" height="196"/>
		<g>
			<path class="st3" d="M1433.8,545.7c0,27.3-18.6,49.4-41.5,49.4c-22.9,0-41.5-22.1-41.5-49.4c0-27.3,18.6-70.5,41.5-70.5
				C1415.2,475.2,1433.8,518.4,1433.8,545.7z"/>
			<path class="st0" d="M1368.1,511.8l1.9-6.9c0.8-2.9,2-5.7,3.7-8.2l3.5-5.4c0.3-0.4-0.6-0.9-1-0.7c-3.7,2-10.9,7.7-9.5,20.8
				C1366.6,512.1,1367.9,512.4,1368.1,511.8z"/>
			<circle class="st0" cx="1381.8" cy="523.3" r="2"/>
			<circle class="st0" cx="1401.5" cy="523.3" r="2"/>
			<line class="st4" x1="1388.2" y1="527.9" x2="1394.8" y2="527.9"/>
		</g>
	</g>
	<g>
		<rect x="1728" y="441.4" class="st2" width="192" height="196"/>
		<g>
			<path class="st3" d="M1865.8,545.7c0,27.3-18.6,49.4-41.5,49.4s-41.5-22.1-41.5-49.4c0-27.3,18.6-70.5,41.5-70.5
				S1865.8,518.4,1865.8,545.7z"/>
			<path class="st0" d="M1800.1,511.8l1.9-6.9c0.8-2.9,2-5.7,3.7-8.2l3.5-5.4c0.3-0.4-0.6-0.9-1-0.7c-3.7,2-10.9,7.7-9.5,20.8
				C1798.6,512.1,1799.9,512.4,1800.1,511.8z"/>
			<circle class="st0" cx="1813.8" cy="523.3" r="2"/>
			<circle class="st0" cx="1833.5" cy="523.3" r="2"/>
			<line class="st4" x1="1820.2" y1="527.9" x2="1826.8" y2="527.9"/>
		</g>
	</g>
	<g>
		<rect x="431.5" y="884" class="st2" width="192" height="196"/>
		<g>
			<path class="st3" d="M569.3,988.3c0,27.3-18.6,49.4-41.5,49.4c-22.9,0-41.5-22.1-41.5-49.4c0-27.3,18.6-70.5,41.5-70.5
				C550.7,917.9,569.3,961.1,569.3,988.3z"/>
			<path class="st0" d="M503.6,954.5l1.9-6.9c0.8-2.9,2-5.7,3.7-8.2l3.5-5.4c0.3-0.4-0.6-0.9-1-0.7c-3.7,2-10.9,7.7-9.5,20.8
				C502.1,954.7,503.4,955,503.6,954.5z"/>
			<circle class="st0" cx="517.3" cy="965.9" r="2"/>
			<circle class="st0" cx="537" cy="965.9" r="2"/>
			<line class="st4" x1="523.7" y1="970.6" x2="530.3" y2="970.6"/>
		</g>
	</g>
	<g>
		<rect y="884" class="st2" width="192" height="196"/>
		<g>
			<path class="st3" d="M137.8,988.3c0,27.3-18.6,49.4-41.5,49.4s-41.5-22.1-41.5-49.4c0-27.3,18.6-70.5,41.5-70.5
				S137.8,961.1,137.8,988.3z"/>
			<path class="st0" d="M72.1,954.5l1.9-6.9c0.8-2.9,2-5.7,3.7-8.2l3.5-5.4c0.3-0.4-0.6-0.9-1-0.7c-3.7,2-10.9,7.7-9.5,20.8
				C70.6,954.7,71.9,955,72.1,954.5z"/>
			<circle class="st0" cx="85.8" cy="965.9" r="2"/>
			<circle class="st0" cx="105.5" cy="965.9" r="2"/>
			<line class="st4" x1="92.2" y1="970.6" x2="98.8" y2="970.6"/>
		</g>
	</g>
	<g>
		<rect x="863.5" y="884" class="st2" width="192" height="196"/>
		<g>
			<path class="st3" d="M1001.3,988.3c0,27.3-18.6,49.4-41.5,49.4s-41.5-22.1-41.5-49.4c0-27.3,18.6-70.5,41.5-70.5
				S1001.3,961.1,1001.3,988.3z"/>
			<path class="st0" d="M935.6,954.5l1.9-6.9c0.8-2.9,2-5.7,3.7-8.2l3.5-5.4c0.3-0.4-0.6-0.9-1-0.7c-3.7,2-10.9,7.7-9.5,20.8
				C934.1,954.7,935.4,955,935.6,954.5z"/>
			<circle class="st0" cx="949.3" cy="965.9" r="2"/>
			<circle class="st0" cx="969" cy="965.9" r="2"/>
			<line class="st4" x1="955.7" y1="970.6" x2="962.3" y2="970.6"/>
		</g>
	</g>
	<g>
		<rect x="1296" y="884" class="st2" width="192" height="196"/>
		<g>
			<path class="st3" d="M1433.8,988.3c0,27.3-18.6,49.4-41.5,49.4c-22.9,0-41.5-22.1-41.5-49.4c0-27.3,18.6-70.5,41.5-70.5
				C1415.2,917.9,1433.8,961.1,1433.8,988.3z"/>
			<path class="st0" d="M1368.1,954.5l1.9-6.9c0.8-2.9,2-5.7,3.7-8.2l3.5-5.4c0.3-0.4-0.6-0.9-1-0.7c-3.7,2-10.9,7.7-9.5,20.8
				C1366.6,954.7,1367.9,955,1368.1,954.5z"/>
			<circle class="st0" cx="1381.8" cy="965.9" r="2"/>
			<circle class="st0" cx="1401.5" cy="965.9" r="2"/>
			<line class="st4" x1="1388.2" y1="970.6" x2="1394.8" y2="970.6"/>
		</g>
	</g>
	<g>
		<rect x="1728" y="884" class="st2" width="192" height="196"/>
		<g>
			<path class="st3" d="M1865.8,988.3c0,27.3-18.6,49.4-41.5,49.4s-41.5-22.1-41.5-49.4c0-27.3,18.6-70.5,41.5-70.5
				S1865.8,961.1,1865.8,988.3z"/>
			<path class="st0" d="M1800.1,954.5l1.9-6.9c0.8-2.9,2-5.7,3.7-8.2l3.5-5.4c0.3-0.4-0.6-0.9-1-0.7c-3.7,2-10.9,7.7-9.5,20.8
				C1798.6,954.7,1799.9,955,1800.1,954.5z"/>
			<circle class="st0" cx="1813.8" cy="965.9" r="2"/>
			<circle class="st0" cx="1833.5" cy="965.9" r="2"/>
			<line class="st4" x1="1820.2" y1="970.6" x2="1826.8" y2="970.6"/>
		</g>
	</g>
	<g>
		<rect x="1513.5" y="662.2" class="st2" width="192" height="196"/>
		<g>
			<path class="st3" d="M1651.3,766.6c0,27.3-18.6,49.4-41.5,49.4c-22.9,0-41.5-22.1-41.5-49.4s18.6-70.5,41.5-70.5
				C1632.7,696.1,1651.3,739.3,1651.3,766.6z"/>
			<path class="st0" d="M1585.6,732.7l1.9-6.9c0.8-2.9,2-5.7,3.7-8.2l3.5-5.4c0.3-0.4-0.6-0.9-1-0.7c-3.7,2-10.9,7.7-9.5,20.8
				C1584.1,732.9,1585.4,733.3,1585.6,732.7z"/>
			<circle class="st0" cx="1599.3" cy="744.2" r="2"/>
			<circle class="st0" cx="1619" cy="744.2" r="2"/>
			<line class="st4" x1="1605.7" y1="748.8" x2="1612.3" y2="748.8"/>
		</g>
	</g>
	<g>
		<rect x="1079" y="662.2" class="st2" width="192" height="196"/>
		<g>
			<path class="st3" d="M1216.8,766.6c0,27.3-18.6,49.4-41.5,49.4c-22.9,0-41.5-22.1-41.5-49.4s18.6-70.5,41.5-70.5
				C1198.2,696.1,1216.8,739.3,1216.8,766.6z"/>
			<path class="st0" d="M1151.1,732.7l1.9-6.9c0.8-2.9,2-5.7,3.7-8.2l3.5-5.4c0.3-0.4-0.6-0.9-1-0.7c-3.7,2-10.9,7.7-9.5,20.8
				C1149.6,732.9,1150.9,733.3,1151.1,732.7z"/>
			<circle class="st0" cx="1164.8" cy="744.2" r="2"/>
			<circle class="st0" cx="1184.5" cy="744.2" r="2"/>
			<line class="st4" x1="1171.2" y1="748.8" x2="1177.8" y2="748.8"/>
		</g>
	</g>
	<g>
		<rect x="648.5" y="662.2" class="st2" width="192" height="196"/>
		<g>
			<path class="st3" d="M786.3,766.6c0,27.3-18.6,49.4-41.5,49.4s-41.5-22.1-41.5-49.4s18.6-70.5,41.5-70.5S786.3,739.3,786.3,766.6
				z"/>
			<path class="st0" d="M720.6,732.7l1.9-6.9c0.8-2.9,2-5.7,3.7-8.2l3.5-5.4c0.3-0.4-0.6-0.9-1-0.7c-3.7,2-10.9,7.7-9.5,20.8
				C719.1,732.9,720.4,733.3,720.6,732.7z"/>
			<circle class="st0" cx="734.3" cy="744.2" r="2"/>
			<circle class="st0" cx="754" cy="744.2" r="2"/>
			<line class="st4" x1="740.7" y1="748.8" x2="747.3" y2="748.8"/>
		</g>
	</g>
	<g>
		<rect x="216.5" y="662.2" class="st2" width="192" height="196"/>
		<g>
			<path class="st3" d="M354.3,766.6c0,27.3-18.6,49.4-41.5,49.4c-22.9,0-41.5-22.1-41.5-49.4s18.6-70.5,41.5-70.5
				C335.7,696.1,354.3,739.3,354.3,766.6z"/>
			<path class="st0" d="M288.6,732.7l1.9-6.9c0.8-2.9,2-5.7,3.7-8.2l3.5-5.4c0.3-0.4-0.6-0.9-1-0.7c-3.7,2-10.9,7.7-9.5,20.8
				C287.1,732.9,288.4,733.3,288.6,732.7z"/>
			<circle class="st0" cx="302.3" cy="744.2" r="2"/>
			<circle class="st0" cx="322" cy="744.2" r="2"/>
			<line class="st4" x1="308.7" y1="748.8" x2="315.3" y2="748.8"/>
		</g>
	</g>
</g>
</svg>
