<svg xmlns="http://www.w3.org/2000/svg" viewBox="0 0 200 200"><defs><style>.cls-1{fill:#f2f2f2;}</style></defs><title>me</title><g id="final_copy" data-name="final copy"><path class="cls-1" d="M167.33,102.67c-.35-3.06-.61-6.12-1.06-9.17a60.3,60.3,0,0,0-6.34-19.13c-2.56-4.89-4.7-10.09-7.84-14.58-8.72-12.46-20.15-21.57-34.94-25.93A92.8,92.8,0,0,0,108,32.07h-4.8c-1.88.37-3.78.66-5.64,1.14a17,17,0,0,0-8.31,4.32,6,6,0,0,0-1.69,2.34c-.53,2-1.94,2.41-3.63,3C65.28,49,52,61.15,44,79.13a31.08,31.08,0,0,1-3.52,5.5c-3,4.15-6,8.3-7.21,13.41-.13.53-.26,1.07-.4,1.6l-.22,5.21c1.5,9.25,6.48,16.83,11.47,24.45,2.46,3.75,4.14,8,6.78,11.64,14.46,19.62,34.06,28.75,58.27,26.71a63.55,63.55,0,0,0,57.3-54.26c.4-2.72.58-5.47.86-8.2Zm-95.84-4c.15-2.38,1.5-3.83,4-4.31,2.28-.44,4.59-.68,6.89-1l3.12-.07A33.55,33.55,0,0,1,96,95.52c3.06,1.25,3.77,2.25,3.66,5.52a18.86,18.86,0,0,1-4.73,12c-3,3.43-7.15,3.86-11.38,3.8a17.85,17.85,0,0,1-2.91-.31c-6.22-1.15-8.3-3.37-9.11-10.24A42.37,42.37,0,0,1,71.49,98.65Zm38.9,2.92,1.72-7.94a.06.06,0,0,0-.07,0H112c-6.5.56-12.66-1.21-18.92-2.52a56.17,56.17,0,0,0-18.39-.45c-.48.06-1,.07-1.58.1a.28.28,0,0,1-.28-.38c.13-.37.24-.68.38-1,2.64-5.84,3.8-12,4.49-18.37a17.63,17.63,0,0,1,1-4.24c1.94-5.21,5.72-7.27,11.11-6a45,45,0,0,1,5.7,1.93c2,.76,3.06.4,4-1.52,1.38-2.81,3-3.73,6.13-3.5,7.11.54,13.56,6.23,14.73,13.2a23.42,23.42,0,0,1-1.56,12c-2.26,6.24-4.94,12.35-6.73,18.72-4.34,15.36-1.74,29.66,7.63,42.66l1,1.32v0a.28.28,0,0,1-.12.39C102,155,73.06,148.6,61,120.57a.3.3,0,0,0-.33-.16,11.18,11.18,0,0,1-10.21-2.08,10.81,10.81,0,0,1,2.13-17.91c.78-.37,1.3-.56,2,.34,1.57,2.12,3.4,2.58,6,1.67a16.26,16.26,0,0,0,2.78-1.36c.75-.45,1.45-1,2.4-1.7a.29.29,0,0,1,.43.12,14.37,14.37,0,0,1,1,2.33c.8,3.18,1.37,6.43,2.29,9.58A10.19,10.19,0,0,0,76,118.21a23.23,23.23,0,0,0,15.75.39,13.52,13.52,0,0,0,7.82-6.25,68,68,0,0,0,3.7-7.93c1.22-3,1.39-3.28,4.64-3.07.45,0,.89.06,1.36.11S112.11,93.63,112.11,93.63Zm.8.29"/></g></svg>