<svg xmlns="http://www.w3.org/2000/svg" viewBox="0 0 50 50"><defs><style>.cls-1{fill:#1b1b1b;}</style></defs><title>me2</title><g id="final_copy" data-name="final copy"><path class="cls-1" d="M39.71,25.58c-.08-.66-.14-1.33-.23-2a13.2,13.2,0,0,0-1.39-4.18,29.33,29.33,0,0,0-1.71-3.18,14.1,14.1,0,0,0-7.63-5.67c-.65-.19-1.33-.26-2-.39H25.71c-.41.09-.83.15-1.23.25a3.72,3.72,0,0,0-1.82.95,1.29,1.29,0,0,0-.37.51c-.11.43-.42.52-.79.65a14,14,0,0,0-8.73,7.92,6.61,6.61,0,0,1-.77,1.2,8.32,8.32,0,0,0-1.57,2.93l-.09.35-.05,1.14A14,14,0,0,0,12.8,31.4c.53.82.9,1.76,1.48,2.54A13.58,13.58,0,0,0,27,39.78,13.89,13.89,0,0,0,39.52,27.92c.09-.59.13-1.19.19-1.79Zm-20.94-.87a1,1,0,0,1,.88-.95c.5-.09,1-.15,1.51-.21h.68a7.21,7.21,0,0,1,2.29.48c.66.27.82.49.8,1.21a4.14,4.14,0,0,1-1,2.62,3,3,0,0,1-2.48.83,3.39,3.39,0,0,1-.64-.07c-1.36-.25-1.81-.74-2-2.24A10.22,10.22,0,0,1,18.77,24.71Zm8.5.63.38-1.73h0a14.15,14.15,0,0,1-4.14-.55,12.26,12.26,0,0,0-4-.1c-.11,0-.22,0-.35,0a.07.07,0,0,1-.06-.09c0-.08.05-.15.08-.21a12.94,12.94,0,0,0,1-4,4.13,4.13,0,0,1,.23-.92,1.87,1.87,0,0,1,2.42-1.31,10.79,10.79,0,0,1,1.25.42c.44.17.67.09.87-.33a1.18,1.18,0,0,1,1.34-.77,3.61,3.61,0,0,1,3.22,2.89,5.12,5.12,0,0,1-.34,2.62c-.49,1.36-1.08,2.7-1.47,4.09a10.39,10.39,0,0,0,1.67,9.32l.21.29h0a.07.07,0,0,1,0,.09c-4.07,2-10.38.57-13-5.56a.06.06,0,0,0-.07,0A2.44,2.44,0,0,1,14.18,29a2.36,2.36,0,0,1,.46-3.91c.17-.08.28-.12.43.08a1,1,0,0,0,1.31.36,2.81,2.81,0,0,0,.6-.3,5.27,5.27,0,0,0,.53-.37.06.06,0,0,1,.09,0,2.39,2.39,0,0,1,.21.51c.18.69.3,1.4.5,2.09A2.23,2.23,0,0,0,19.76,29a5.11,5.11,0,0,0,3.45.08,3,3,0,0,0,1.7-1.36A14.3,14.3,0,0,0,25.72,26c.27-.67.3-.72,1-.68l.29,0A8.8,8.8,0,0,0,27.65,23.61Zm.17.06"/></g></svg>